<svg width="32" height="32" viewBox="0 0 32 32" fill="none" xmlns="http://www.w3.org/2000/svg">
<path d="M11.1945 28.18C11.1161 27.8319 11.0739 27.47 11.0739 27.0987C11.0739 25.7453 11.6218 24.5202 12.5092 23.6336C13.3956 22.7471 14.6207 22.1983 15.9742 22.1983V22.2724L16.0267 22.1992C17.7282 22.1923 19.2686 21.4987 20.3842 20.3831C21.5051 19.2622 22.2003 17.7106 22.2003 15.9987C22.2003 14.2868 21.5059 12.7361 20.3842 11.6152C20.0887 11.3188 19.7614 11.0526 19.4107 10.8209C19.919 10.5271 20.3937 10.1661 20.8193 9.7431C21.1088 9.45535 21.3707 9.14433 21.6016 8.81609C21.8962 9.04612 22.177 9.29424 22.4415 9.55787C24.0896 11.206 25.1096 13.4839 25.1096 15.9987C25.1096 18.5135 24.0896 20.7914 22.4415 22.4404C20.7935 24.0885 18.5156 25.1086 16.0009 25.1086H15.9233C15.3944 25.1215 14.9154 25.3429 14.5664 25.6901C14.2072 26.0502 13.9841 26.5491 13.9841 27.0987C13.9841 27.6484 14.2072 28.1515 14.5673 28.5099C14.9222 28.8614 15.4185 29.0828 15.975 29.0897H16.0009C19.6149 29.0897 22.8878 27.6251 25.2569 25.2559C27.6261 22.8867 29.0915 19.6137 29.0915 15.9987C29.0915 12.3837 27.6261 9.1116 25.2569 6.74237C23.9931 5.47764 22.4708 4.47137 20.7779 3.80799C20.8589 4.15863 20.9003 4.52478 20.9003 4.89955C20.9003 6.2513 20.3489 7.47813 19.4529 8.36723C18.5613 9.25203 17.3328 9.7991 15.9742 9.7991C14.2727 9.80685 12.7323 10.4995 11.6158 11.6152C10.4949 12.7361 9.7997 14.2877 9.7997 15.9987C9.7997 17.7097 10.4949 19.2622 11.6158 20.3831C11.9121 20.6794 12.2386 20.9456 12.5893 21.1774C12.081 21.4712 11.6072 21.8322 11.1807 22.2552C10.8912 22.5429 10.6285 22.8539 10.3984 23.1822C10.1038 22.9522 9.82296 22.704 9.55848 22.4404C7.9104 20.7923 6.89037 18.5144 6.89037 15.9987C6.89037 13.483 7.9104 11.206 9.55848 9.55787C11.2005 7.91579 13.468 6.89745 15.9733 6.89056H16.0302C16.5746 6.87505 17.0588 6.65536 17.4068 6.30988C17.767 5.95235 17.9901 5.45266 17.9901 4.89955C17.9901 4.34644 17.7678 3.84848 17.4103 3.48836L17.4077 3.49094C17.0536 3.13771 16.5643 2.91457 16.025 2.90854H15.9991C12.3851 2.90854 9.11221 4.37315 6.74305 6.74237C4.3739 9.1116 2.90846 12.3846 2.90846 15.9987C2.90846 19.6128 4.3739 22.8867 6.74305 25.2559C8 26.5129 9.51109 27.5157 11.1936 28.1791L11.1945 28.18ZM16 0C20.4178 0 24.4178 1.79113 27.3134 4.68589C30.2081 7.58151 32 11.5825 32 15.9996C32 20.4167 30.2089 24.4176 27.3134 27.3132C24.4187 30.2089 20.4178 32 16 32C11.5822 32 7.58217 30.2089 4.68663 27.3132C1.79195 24.4176 0 20.4175 0 15.9996C0 11.5816 1.79195 7.58151 4.68663 4.68589C7.58131 1.79113 11.5822 0 16 0Z" fill="white"/>
</svg>
